<svg width="20" height="28" viewBox="0 0 20 28" fill="none" xmlns="http://www.w3.org/2000/svg">
<path d="M16.5607 26.6324V17.0962L19.2738 19.8095C19.4097 19.0151 19.5149 18.2158 19.5892 17.4133L19.085 16.9091H19.6328C19.7697 15.1805 19.7831 13.3907 19.6726 11.6503H16.6006L19.3827 8.86815C19.2706 8.10369 19.1252 7.34446 18.9471 6.59262L16.5607 8.97946V1.36777C15.8317 0.577629 14.9789 0.122742 13.9997 0.122742C13.094 0.123116 12.1905 0.211544 11.3019 0.386778V11.6093L4.03709 4.34469C3.59005 4.80568 3.17523 5.29686 2.79557 5.81475L7.44283 10.462L8.63176 11.6505H0.324585C0.191169 12.4267 0.123586 13.2127 0.122559 14.0003C0.122559 14.9984 0.230364 15.9706 0.430199 16.9091H11.2603L4.27374 23.8956C4.7312 24.3456 5.21909 24.7636 5.73393 25.1466L11.3017 19.5788V27.613C12.1903 27.7883 13.0938 27.8769 13.9995 27.8774C14.9789 27.8774 15.8317 27.4226 16.5607 26.6324Z" fill="#E51D35"/>
</svg>
